<svg width="40" height="40" viewBox="0 0 40 40" fill="none" xmlns="http://www.w3.org/2000/svg">
<rect width="40" height="40" rx="10" fill="#4D0B0B" fill-opacity="0.1"/>
<g clip-path="url(#clip0)">
<path d="M28.15 19.65H21.3501V12.8499C21.3501 12.3809 20.9692 12 20.4999 12C20.0309 12 19.65 12.3809 19.65 12.8499V19.65H12.8499C12.3809 19.65 12 20.0309 12 20.4999C12 20.9692 12.3809 21.3501 12.8499 21.3501H19.65V28.15C19.65 28.6192 20.0309 29.0001 20.4999 29.0001C20.9692 29.0001 21.3501 28.6192 21.3501 28.15V21.3501H28.15C28.6192 21.3501 29.0001 20.9692 29.0001 20.4999C29.0001 20.0309 28.6192 19.65 28.15 19.65Z" fill="#D00000"/>
</g>
<defs>
<clipPath id="clip0">
<rect width="17" height="17" fill="white" transform="translate(12 12)"/>
</clipPath>
</defs>
</svg>
