<svg width="36" height="15" viewBox="0 0 36 15" fill="none" xmlns="http://www.w3.org/2000/svg">
<path d="M32.667 6.9147L25.9918 0.239632C25.8374 0.0851213 25.6313 0 25.4115 0C25.1918 0 24.9857 0.0851213 24.8313 0.239632L24.3397 0.731092C24.0198 1.05133 24.0198 1.57182 24.3397 1.89157L29.945 7.49689L24.3335 13.1084C24.1791 13.2629 24.0939 13.4689 24.0939 13.6885C24.0939 13.9084 24.1791 14.1144 24.3335 14.269L24.8251 14.7604C24.9796 14.9149 25.1856 15 25.4053 15C25.6251 15 25.8312 14.9149 25.9856 14.7604L32.667 8.0792C32.8217 7.9242 32.9067 7.71725 32.9062 7.49726C32.9067 7.2764 32.8217 7.06958 32.667 6.9147Z" fill="black"/>
<path d="M3.33303 8.0853L10.0082 14.7604C10.1626 14.9149 10.3687 15 10.5885 15C10.8082 15 11.0143 14.9149 11.1687 14.7604L11.6603 14.2689C11.9802 13.9487 11.9802 13.4282 11.6603 13.1084L6.05496 7.50311L11.6665 1.89157C11.8209 1.73706 11.9061 1.53108 11.9061 1.31145C11.9061 1.09158 11.8209 0.885602 11.6665 0.730968L11.1749 0.239632C11.0204 0.0851202 10.8144 0 10.5947 0C10.3749 0 10.1688 0.0851202 10.0144 0.239632L3.33303 6.9208C3.17827 7.0758 3.09327 7.28275 3.09376 7.50274C3.09327 7.7236 3.17827 7.93042 3.33303 8.0853Z" fill="#949494"/>
</svg>
