<svg width="17" height="17" viewBox="0 0 17 17" fill="none" xmlns="http://www.w3.org/2000/svg">
<path d="M16.2917 7.31154H2.16077L7.57173 1.40073C7.85506 1.09121 7.86604 0.576982 7.59617 0.252033C7.32665 -0.0725092 6.87827 -0.0855072 6.59458 0.224006L0.415083 6.97481C0.147687 7.28189 0 7.6897 0 8.12391C0 8.55772 0.147687 8.96594 0.427479 9.28642L6.59494 16.0234C6.732 16.1733 6.90767 16.2476 7.08333 16.2476C7.27033 16.2476 7.45733 16.1631 7.59652 15.9954C7.8664 15.6704 7.85542 15.1566 7.57208 14.8471L2.13846 8.93628H16.2917C16.6827 8.93628 17 8.57234 17 8.12391C17 7.67548 16.6827 7.31154 16.2917 7.31154Z" fill="#4D0B0B"/>
</svg>
