<svg width="17" height="17" viewBox="0 0 17 17" fill="none" xmlns="http://www.w3.org/2000/svg">
<g clip-path="url(#clip0)">
<path d="M4.63652 8.11367C4.63652 7.90011 4.46371 7.72729 4.25015 7.72729C4.03658 7.72729 3.86377 7.90011 3.86377 8.11367C3.86377 9.12824 4.98287 10.5213 5.11041 10.6771C5.18702 10.7699 5.29793 10.8182 5.4096 10.8182C5.49563 10.8182 5.58241 10.7895 5.65446 10.7307C5.81934 10.5952 5.8431 10.3519 5.70803 10.1866C5.2938 9.68178 4.63652 8.67282 4.63652 8.11367Z" fill="black"/>
<path d="M12.7499 7.72729C12.5364 7.72729 12.3635 7.90011 12.3635 8.11367C12.3635 8.67094 11.7063 9.68101 11.292 10.187C11.1569 10.3519 11.1811 10.5952 11.346 10.7307C11.4177 10.7895 11.5044 10.8182 11.5908 10.8182C11.7025 10.8182 11.813 10.7699 11.8897 10.6771C12.0172 10.5213 13.1363 9.12827 13.1363 8.11367C13.1363 7.90011 12.9635 7.72729 12.7499 7.72729Z" fill="black"/>
<path d="M8.50015 7.72729C8.28658 7.72729 8.11377 7.90011 8.11377 8.11367V10.4319C8.11377 10.6454 8.28658 10.8182 8.50015 10.8182C8.71371 10.8182 8.88652 10.6454 8.88652 10.4319V8.11367C8.88648 7.90011 8.71367 7.72729 8.50015 7.72729Z" fill="black"/>
<path d="M12.75 1.54547C12.5159 1.54547 12.2712 1.57644 12.0171 1.62363C11.1661 0.631669 9.90647 0 8.50002 0C7.09357 0 5.83385 0.631669 4.98293 1.6236C4.7288 1.57644 4.48413 1.54543 4.25003 1.54543C1.90652 1.54547 0 3.45199 0 5.79546C0 7.40127 0.90554 8.86108 2.32724 9.58286L2.3197 15.4217C2.31934 15.8432 2.48306 16.2393 2.78077 16.5374C3.07884 16.8359 3.47463 17 3.89611 17H13.1055C13.9748 17 14.6819 16.2929 14.6819 15.4236V9.57721C16.0983 8.85354 17 7.39598 17 5.79546C17 3.45199 15.0935 1.54547 12.75 1.54547ZM13.9091 15.4236C13.9091 15.8666 13.5484 16.2273 13.1054 16.2273H3.89607C3.68138 16.2273 3.47952 16.1435 3.32746 15.9915C3.17577 15.8395 3.09202 15.6376 3.09238 15.4225L3.09441 13.9091H13.9091V15.4236ZM14.1483 8.97579C14.1279 8.98408 14.1087 8.9939 14.0906 9.0056C14.0419 9.03577 14.0019 9.0758 13.9721 9.1218C13.9419 9.16744 13.9215 9.22029 13.9132 9.27686C13.9098 9.29838 13.9087 9.31989 13.9091 9.34177V13.1363H3.09539L3.10035 9.34702C3.10072 9.32591 3.09959 9.30439 3.09659 9.28364C3.08829 9.22514 3.06678 9.17081 3.03544 9.12365C3.006 9.07949 2.96753 9.04102 2.92073 9.01158C2.9015 8.99951 2.8811 8.98894 2.85999 8.98024C1.59187 8.42569 0.772716 7.17677 0.772716 5.79546C0.772716 3.87796 2.33253 2.31818 4.24999 2.31818C4.32493 2.31818 4.40404 2.32724 4.48166 2.33336C4.09076 3.01273 3.86361 3.7978 3.86361 4.63637C3.86361 4.84993 4.03643 5.02274 4.24999 5.02274C4.46355 5.02274 4.63637 4.84993 4.63637 4.63637C4.63637 2.50606 6.36972 0.772716 8.50002 0.772716C10.6303 0.772716 12.3636 2.50606 12.3636 4.63637C12.3636 4.84993 12.5364 5.02274 12.75 5.02274C12.9636 5.02274 13.1364 4.84993 13.1364 4.63637C13.1364 3.7978 12.9092 3.01277 12.5183 2.33336C12.596 2.32724 12.6751 2.31818 12.75 2.31818C14.6675 2.31818 16.2273 3.87799 16.2273 5.79546C16.2273 7.17188 15.4115 8.41924 14.1483 8.97579Z" fill="black"/>
</g>
<defs>
<clipPath id="clip0">
<rect width="17" height="17" fill="white"/>
</clipPath>
</defs>
</svg>
