<svg width="23" height="15" viewBox="0 0 23 15" fill="none" xmlns="http://www.w3.org/2000/svg">
<path d="M12.3975 13.8896L22.6326 3.65427C22.8695 3.41754 23 3.10153 23 2.76457C23 2.42761 22.8695 2.1116 22.6326 1.87487L21.879 1.12111C21.388 0.630638 20.5899 0.630638 20.0996 1.12111L11.5048 9.71594L2.90041 1.11158C2.66349 0.874847 2.34766 0.744141 2.01089 0.744141C1.67375 0.744141 1.35792 0.874847 1.12082 1.11158L0.367435 1.86533C0.130518 2.10225 0 2.41808 0 2.75503C0 3.09199 0.130518 3.40801 0.367435 3.64473L10.6119 13.8896C10.8496 14.1269 11.1669 14.2572 11.5042 14.2564C11.8428 14.2572 12.16 14.1269 12.3975 13.8896Z" fill="#4D0B0B"/>
</svg>
