<svg width="24" height="24" viewBox="0 0 24 24" fill="none" xmlns="http://www.w3.org/2000/svg">
<g clip-path="url(#clip0)">
<path d="M8.75 17.6121V22.2501C8.75 22.5741 8.958 22.8611 9.266 22.9631C9.343 22.9881 9.422 23.0001 9.5 23.0001C9.734 23.0001 9.96 22.8901 10.104 22.6941L12.817 19.0021L8.75 17.6121Z" fill="white"/>
<path d="M23.6846 0.138234C23.4546 -0.0247659 23.1526 -0.0467659 22.9026 0.0842341L0.402556 11.8342C0.136556 11.9732 -0.0204438 12.2572 0.0015562 12.5562C0.0245562 12.8562 0.223556 13.1122 0.506556 13.2092L6.76156 15.3472L20.0826 3.95723L9.77456 16.3762L20.2576 19.9592C20.3356 19.9852 20.4176 19.9992 20.4996 19.9992C20.6356 19.9992 20.7706 19.9622 20.8896 19.8902C21.0796 19.7742 21.2086 19.5792 21.2416 19.3602L23.9916 0.860234C24.0326 0.580234 23.9146 0.302234 23.6846 0.138234Z" fill="white"/>
</g>
<defs>
<clipPath id="clip0">
<rect width="24" height="24" fill="white"/>
</clipPath>
</defs>
</svg>
