<svg width="29" height="29" viewBox="0 0 29 29" fill="none" xmlns="http://www.w3.org/2000/svg">
<g clip-path="url(#clip0)">
<path d="M28.5723 3.38377C28.0019 2.81335 27.0773 2.81355 26.5075 3.38397L13.4042 16.4894L7.36812 10.4531C6.7977 9.88283 5.87316 9.88264 5.30333 10.4529C4.73291 11.0231 4.73291 11.9476 5.30313 12.5177L12.3718 19.5868C12.6458 19.8607 13.017 20.0145 13.4044 20.0145C13.7916 20.0145 14.1631 19.8607 14.437 19.5868L28.5727 5.44857C29.1425 4.87854 29.1425 3.95399 28.5723 3.38377Z" fill="#4D4D4D"/>
<path d="M25.4196 12.7415C24.6132 12.7415 23.9595 13.395 23.9595 14.2016V25.02H2.92023V3.98077H19.5792C20.3857 3.98077 21.0393 3.32723 21.0393 2.52066C21.0393 1.71429 20.3857 1.06055 19.5792 1.06055H1.46011C0.653742 1.06055 0 1.71409 0 2.52066V26.4802C0 27.2867 0.653742 27.9403 1.46011 27.9403H25.4196C26.2262 27.9403 26.8797 27.2867 26.8797 26.4802V14.2016C26.8797 13.3952 26.2262 12.7415 25.4196 12.7415Z" fill="#4D4D4D"/>
</g>
<defs>
<clipPath id="clip0">
<rect width="29" height="29" fill="white"/>
</clipPath>
</defs>
</svg>
