<svg width="126" height="78" viewBox="0 0 126 78" fill="none" xmlns="http://www.w3.org/2000/svg">
<g filter="url(#filter0_d)">
<rect x="11" y="7.78564" width="104" height="54.6813" rx="27.3407" fill="#55ACE3"/>
</g>
<ellipse cx="63" cy="35.6235" rx="20" ry="19.8841" fill="#55ACE3"/>
<path d="M73.0083 31.3361C73.2111 31.1131 72.9803 30.7893 72.6902 30.8713C72.3728 30.961 72.1437 30.4904 72.3581 30.2397C72.4434 30.1402 72.5241 30.0369 72.5997 29.9305C72.8134 29.6296 72.4709 29.3233 72.1314 29.468C71.7653 29.624 71.3837 29.7492 70.9696 29.852C70.6806 29.9238 70.3836 29.8132 70.1583 29.6185C69.469 29.0228 68.5345 28.6641 67.6 28.6641C65.4 28.6641 63.6 30.4536 63.6 32.6409C63.6 33.0736 63.2285 33.5057 62.7999 33.4463C60.5732 33.1375 58.5187 32.1968 56.8637 30.8179C56.1122 30.1918 54.9 30.3703 54.9 31.3484C54.9 32.2884 55.2193 33.1378 55.7654 33.8045C55.9957 34.0856 55.7799 34.5278 55.441 34.3966C55.1785 34.295 54.9065 34.4905 54.953 34.7682C55.1614 36.0133 55.9663 37.1032 57.0519 37.6609C57.3062 37.7915 57.2859 38.109 57 38.109C56.6617 38.109 56.3557 38.4572 56.5212 38.7523C56.7197 39.1063 56.9716 39.4284 57.2668 39.7068C57.9844 40.3838 58.2829 41.885 57.3353 42.1596C56.5993 42.3729 55.8182 42.4835 55 42.4835C54.8241 42.4835 54.7236 42.7946 54.8805 42.8742C56.4725 43.6814 58.2655 44.1737 60.2 44.1737C67.6 44.1737 71.6 38.109 71.6 32.8397V32.8301C71.6 32.537 71.7861 32.2805 72.04 32.1341C72.3916 31.9316 72.7177 31.6557 73.0083 31.3361Z" fill="white"/>
<defs>
<filter id="filter0_d" x="0" y="0.785645" width="126" height="76.6813" filterUnits="userSpaceOnUse" color-interpolation-filters="sRGB">
<feFlood flood-opacity="0" result="BackgroundImageFix"/>
<feColorMatrix in="SourceAlpha" type="matrix" values="0 0 0 0 0 0 0 0 0 0 0 0 0 0 0 0 0 0 127 0"/>
<feMorphology radius="1" operator="dilate" in="SourceAlpha" result="effect1_dropShadow"/>
<feOffset dy="4"/>
<feGaussianBlur stdDeviation="5"/>
<feColorMatrix type="matrix" values="0 0 0 0 0.716667 0 0 0 0 0.716667 0 0 0 0 0.716667 0 0 0 0.25 0"/>
<feBlend mode="normal" in2="BackgroundImageFix" result="effect1_dropShadow"/>
<feBlend mode="normal" in="SourceGraphic" in2="effect1_dropShadow" result="shape"/>
</filter>
</defs>
</svg>
