<svg width="126" height="78" viewBox="0 0 126 78" fill="none" xmlns="http://www.w3.org/2000/svg">
<g filter="url(#filter0_d)">
<rect x="11" y="7.78564" width="104" height="54.6813" rx="27.3407" fill="#C5331E"/>
</g>
<ellipse cx="63" cy="35.6235" rx="20" ry="19.8841" fill="#C5331E"/>
<path d="M63.3417 34.0742V35.803C63.3417 37.0217 64.3296 38.0096 65.5483 38.0096C67.0869 38.0096 68.0716 39.5976 66.8226 40.4961C65.891 41.1662 64.7385 41.5515 63.5 41.5515C60.4125 41.5515 57.9583 39.1115 57.9583 36.0419C57.9583 32.9723 60.4125 30.5323 63.5 30.5323C64.6875 30.5323 65.7958 30.9259 66.7458 31.5556C66.9216 31.6866 67.17 31.6527 67.3042 31.4793L69.1958 29.0345C69.3286 28.8628 69.2948 28.6157 69.1208 28.4859C67.4583 27.3053 65.5583 26.6757 63.5 26.6757C58.275 26.6757 54 30.9259 54 36.1206C54 41.3153 58.275 45.5656 63.5 45.5656C68.725 45.5656 73 41.3153 73 36.1206C73 35.0339 72.119 34.1529 71.0323 34.1529H63.4204C63.3769 34.1529 63.3417 34.1177 63.3417 34.0742Z" fill="white"/>
<defs>
<filter id="filter0_d" x="0" y="0.785645" width="126" height="76.6813" filterUnits="userSpaceOnUse" color-interpolation-filters="sRGB">
<feFlood flood-opacity="0" result="BackgroundImageFix"/>
<feColorMatrix in="SourceAlpha" type="matrix" values="0 0 0 0 0 0 0 0 0 0 0 0 0 0 0 0 0 0 127 0"/>
<feMorphology radius="1" operator="dilate" in="SourceAlpha" result="effect1_dropShadow"/>
<feOffset dy="4"/>
<feGaussianBlur stdDeviation="5"/>
<feColorMatrix type="matrix" values="0 0 0 0 0.716667 0 0 0 0 0.716667 0 0 0 0 0.716667 0 0 0 0.25 0"/>
<feBlend mode="normal" in2="BackgroundImageFix" result="effect1_dropShadow"/>
<feBlend mode="normal" in="SourceGraphic" in2="effect1_dropShadow" result="shape"/>
</filter>
</defs>
</svg>
