<svg width="36" height="36" viewBox="0 0 36 36" fill="none" xmlns="http://www.w3.org/2000/svg">
<g clip-path="url(#clip0)">
<path d="M18.0005 0C8.07529 0 0.000488281 8.0748 0.000488281 18C0.000488281 22.347 1.54969 26.3388 4.12489 29.4528C4.13149 29.4618 4.13209 29.4732 4.13929 29.4816C5.99869 31.7238 8.33389 33.4428 10.9361 34.5534C10.9661 34.566 10.9955 34.5798 11.0255 34.5924C11.2361 34.6812 11.4491 34.7634 11.6627 34.8438C11.7467 34.8756 11.8307 34.908 11.9159 34.9386C12.1001 35.0046 12.2855 35.067 12.4721 35.127C12.5915 35.1654 12.7109 35.2032 12.8315 35.2392C12.9965 35.2884 13.1621 35.3358 13.3289 35.3808C13.4753 35.4204 13.6229 35.457 13.7705 35.4924C13.9199 35.5284 14.0699 35.5644 14.2205 35.5962C14.3885 35.6322 14.5583 35.664 14.7287 35.6952C14.8655 35.7204 15.0017 35.7468 15.1397 35.769C15.3287 35.7996 15.5189 35.8236 15.7097 35.8482C15.8327 35.8638 15.9551 35.8818 16.0787 35.895C16.2947 35.9178 16.5125 35.934 16.7309 35.949C16.8323 35.9562 16.9331 35.967 17.0351 35.9724C17.3537 35.9904 17.6759 36 18.0005 36C18.3251 36 18.6473 35.9904 18.9671 35.9736C19.0691 35.9682 19.1699 35.9574 19.2713 35.9502C19.4897 35.9346 19.7075 35.919 19.9235 35.8962C20.0471 35.883 20.1695 35.865 20.2925 35.8494C20.4833 35.8248 20.6735 35.8008 20.8625 35.7702C20.9999 35.748 21.1367 35.7216 21.2735 35.6964C21.4433 35.6652 21.6131 35.6334 21.7817 35.5974C21.9323 35.565 22.0817 35.5296 22.2317 35.4936C22.3793 35.4576 22.5269 35.421 22.6733 35.382C22.8401 35.3376 23.0057 35.2896 23.1707 35.2404C23.2913 35.2044 23.4107 35.1666 23.5301 35.1282C23.7167 35.0682 23.9021 35.0058 24.0863 34.9398C24.1709 34.9092 24.2549 34.8768 24.3395 34.845C24.5537 34.7646 24.7661 34.6818 24.9767 34.5936C25.0067 34.581 25.0361 34.5672 25.0661 34.5546C27.6677 33.444 30.0035 31.725 31.8629 29.4828C31.8701 29.4744 31.8707 29.4624 31.8773 29.454C34.4513 26.3388 36.0005 22.347 36.0005 18C36.0005 8.0748 27.9257 0 18.0005 0ZM25.2947 33.132C25.2857 33.1362 25.2773 33.141 25.2683 33.1452C25.0541 33.2484 24.8363 33.3456 24.6167 33.4404C24.5669 33.4614 24.5177 33.483 24.4679 33.504C24.2759 33.5844 24.0815 33.6606 23.8859 33.7338C23.8043 33.7644 23.7227 33.7944 23.6405 33.8232C23.4671 33.885 23.2931 33.9444 23.1173 34.0008C23.0081 34.0356 22.8983 34.0686 22.7885 34.101C22.6325 34.1478 22.4759 34.1928 22.3175 34.2348C22.1843 34.2702 22.0499 34.3026 21.9155 34.3344C21.7745 34.368 21.6341 34.4022 21.4919 34.4322C21.3365 34.4652 21.1799 34.4934 21.0239 34.5216C20.8973 34.545 20.7713 34.5696 20.6435 34.59C20.4677 34.6176 20.2901 34.6398 20.1131 34.662C20.0009 34.6764 19.8893 34.6932 19.7759 34.7052C19.5737 34.7268 19.3697 34.7406 19.1663 34.755C19.0757 34.761 18.9857 34.7712 18.8939 34.776C18.5969 34.7916 18.2993 34.8 18.0005 34.8C17.7017 34.8 17.4041 34.7916 17.1077 34.776C17.0165 34.7712 16.9265 34.7616 16.8353 34.755C16.6313 34.7412 16.4279 34.7268 16.2257 34.7052C16.1123 34.6932 16.0007 34.6764 15.8885 34.662C15.7115 34.6398 15.5339 34.6176 15.3581 34.59C15.2303 34.5696 15.1043 34.545 14.9777 34.5216C14.8211 34.4934 14.6645 34.4646 14.5097 34.4322C14.3675 34.4022 14.2265 34.368 14.0861 34.3344C13.9517 34.302 13.8173 34.2702 13.6841 34.2348C13.5263 34.1928 13.3691 34.1472 13.2131 34.101C13.1033 34.0686 12.9935 34.0356 12.8843 34.0008C12.7085 33.9444 12.5339 33.885 12.3611 33.8232C12.2789 33.7938 12.1973 33.7638 12.1157 33.7338C11.9201 33.6606 11.7257 33.5844 11.5337 33.504C11.4839 33.4836 11.4353 33.462 11.3855 33.441C11.1659 33.3468 10.9481 33.249 10.7333 33.1458C10.7243 33.1416 10.7159 33.1374 10.7069 33.1326C8.61349 32.1198 6.76429 30.6822 5.26369 28.9362C6.42349 24.6654 9.70669 21.2226 13.9307 19.8528C14.0141 19.9038 14.1011 19.9494 14.1869 19.9974C14.2373 20.0256 14.2871 20.0556 14.3381 20.0826C14.5169 20.1774 14.6981 20.2662 14.8835 20.346C15.0257 20.4084 15.1727 20.4612 15.3191 20.5152C15.3479 20.5254 15.3767 20.5368 15.4055 20.547C16.2191 20.835 17.0897 21 18.0005 21C18.9113 21 19.7819 20.835 20.5949 20.547C20.6237 20.5368 20.6525 20.5254 20.6813 20.5152C20.8277 20.4612 20.9747 20.4084 21.1169 20.346C21.3023 20.2662 21.4835 20.1774 21.6623 20.0826C21.7133 20.055 21.7631 20.0256 21.8135 19.9974C21.8993 19.9494 21.9869 19.9038 22.0709 19.8522C26.2949 21.2226 29.5775 24.6654 30.7379 28.9356C29.2373 30.681 27.3881 32.1186 25.2947 33.132ZM11.4005 13.2C11.4005 9.561 14.3615 6.6 18.0005 6.6C21.6395 6.6 24.6005 9.561 24.6005 13.2C24.6005 15.5148 23.3999 17.5518 21.5909 18.7302C21.3545 18.8838 21.1085 19.0212 20.8559 19.1412C20.8259 19.1556 20.7965 19.1706 20.7665 19.1844C19.0289 19.9746 16.9721 19.9746 15.2345 19.1844C15.2045 19.1706 15.1745 19.1556 15.1451 19.1412C14.8919 19.0212 14.6465 18.8838 14.4101 18.7302C12.6011 17.5518 11.4005 15.5148 11.4005 13.2ZM31.6379 27.7938C30.2777 23.7774 27.1745 20.5314 23.2097 18.9894C24.7955 17.5608 25.8005 15.498 25.8005 13.2C25.8005 8.8992 22.3013 5.4 18.0005 5.4C13.6997 5.4 10.2005 8.8992 10.2005 13.2C10.2005 15.498 11.2055 17.5608 12.7919 18.9894C8.82709 20.532 5.72389 23.7774 4.36369 27.7938C2.37589 25.0344 1.20049 21.6528 1.20049 18C1.20049 8.7366 8.73709 1.2 18.0005 1.2C27.2639 1.2 34.8005 8.7366 34.8005 18C34.8005 21.6528 33.6251 25.0344 31.6379 27.7938Z" fill="black"/>
</g>
<defs>
<clipPath id="clip0">
<rect width="36" height="36" fill="white" transform="translate(0.000488281)"/>
</clipPath>
</defs>
</svg>
